<?xml version="1.0" encoding="UTF-8" standalone="no"?>
<!DOCTYPE svg PUBLIC "-//W3C//DTD SVG 1.1//EN" "http://www.w3.org/Graphics/SVG/1.1/DTD/svg11.dtd">
<!-- Created with Vectornator (http://vectornator.io/) -->
<svg height="100%" stroke-miterlimit="10" style="fill-rule:nonzero;clip-rule:evenodd;stroke-linecap:round;stroke-linejoin:round;" version="1.1" viewBox="0 0 512 512" width="100%" xml:space="preserve" xmlns="http://www.w3.org/2000/svg" xmlns:vectornator="http://vectornator.io" xmlns:xlink="http://www.w3.org/1999/xlink">
<defs/>
<path d="M0 0L512 0L512 512L0 512L0 0Z" fill="#ffffff" fill-rule="nonzero" opacity="1" stroke="none"/>
<g id="Layer-2" vectornator:layerName="Layer 2">
<path d="M56 256C56 145.543 145.543 56 256 56C366.457 56 456 145.543 456 256C456 366.457 366.457 456 256 456C145.543 456 56 366.457 56 256Z" fill="#010101" fill-rule="nonzero" opacity="1" stroke="#010101" stroke-linecap="round" stroke-linejoin="round" stroke-width="1"/>
<g opacity="1">
<path d="M356 379.894L156 379.894L156 349.059L300.346 166.934L159.104 166.934L159.104 132.106L352.231 132.106L352.231 161.832L207.22 344.622L356 344.622L356 379.894Z" fill="#ffffff" fill-rule="nonzero" opacity="1" stroke="none"/>
</g>
</g>
</svg>
